<svg width="428" height="926" viewBox="0 0 428 926" fill="none" xmlns="http://www.w3.org/2000/svg">
<rect x="418" y="154" width="9.482" height="7.28" transform="rotate(-81 418 154)" fill="#03A3F5" fill-opacity="0.45"/>
<rect x="300" y="312" width="10.482" height="7.28" transform="rotate(-55 300 312)" fill="#BA3E03" fill-opacity="0.35"/>
<rect x="391" y="851" width="12.482" height="8.28" transform="rotate(-20 391 851)" fill="#FFED36" fill-opacity="0.85"/>
<rect x="293" y="497" width="15.482" height="5.28" transform="rotate(-163 293 497)" fill="#C9FCBE"/>
<rect x="89" y="602" width="17.482" height="8.28" transform="rotate(38 89 602)" fill="#BA3E03" fill-opacity="0.9"/>
<rect x="204" y="580" width="16.482" height="4.28" transform="rotate(-80 204 580)" fill="#FFED36"/>
<rect x="205" y="300" width="37.482" height="4.28" transform="rotate(-86 205 300)" fill="#03A3F5" fill-opacity="0.75"/>
<rect x="86" y="872" width="36.482" height="8.28" transform="rotate(-33 86 872)" fill="#03A3F5"/>
<rect x="253" y="353" width="28.482" height="7.28" transform="rotate(-95 253 353)" fill="#03A3F5" fill-opacity="0.85"/>
<rect x="168" y="471" width="18.482" height="6.28" transform="rotate(81 168 471)" fill="#480CA7" fill-opacity="0.45"/>
<rect x="397" y="561" width="24.482" height="7.28" transform="rotate(180 397 561)" fill="#FF21FB" fill-opacity="0.6"/>
<rect x="175" y="633" width="32.482" height="7.28" transform="rotate(-20 175 633)" fill="#480CA7" fill-opacity="0.9"/>
<rect x="426" y="188" width="12.482" height="5.28" transform="rotate(-76 426 188)" fill="#4BC8EF" fill-opacity="0.9"/>
<rect x="350" y="675" width="18.482" height="8.28" transform="rotate(-159 350 675)" fill="#4BC8EF" fill-opacity="0.75"/>
<rect x="232" y="189" width="14.482" height="6.28" transform="rotate(-20 232 189)" fill="#FFED36" fill-opacity="0.35"/>
<rect x="24" y="542" width="15.482" height="4.28" transform="rotate(-48 24 542)" fill="#C9FCBE" fill-opacity="0.85"/>
<rect x="85" y="514" width="34.482" height="7.28" transform="rotate(65 85 514)" fill="#F62584" fill-opacity="0.9"/>
<rect x="278" y="335" width="10.482" height="5.28" transform="rotate(-77 278 335)" fill="#9AF5FC" fill-opacity="0.85"/>
<rect x="69" y="91" width="34.482" height="6.28" transform="rotate(-84 69 91)" fill="#DCBCFA" fill-opacity="0.35"/>
<rect x="179" y="711" width="9.482" height="4.28" transform="rotate(179 179 711)" fill="#FF21FB" fill-opacity="0.85"/>
<rect x="399" y="230" width="27.482" height="5.28" transform="rotate(-155 399 230)" fill="#480CA7" fill-opacity="0.85"/>
<rect x="77" y="636" width="8.482" height="4.28" transform="rotate(149 77 636)" fill="#FFED36" fill-opacity="0.45"/>
<rect x="248" y="699" width="14.482" height="4.28" transform="rotate(49 248 699)" fill="#FF21FB" fill-opacity="0.45"/>
<circle cx="129.315" cy="398.315" r="5.315" fill="#C9FCBE" fill-opacity="0.45"/>
<circle cx="150.815" cy="619.815" r="6.815" fill="#F54721" fill-opacity="0.75"/>
<circle cx="148.315" cy="527.315" r="4.315" fill="#C9FCBE" fill-opacity="0.6"/>
<circle cx="262.315" cy="583.315" r="5.315" fill="#F62584" fill-opacity="0.45"/>
<circle cx="227.315" cy="547.315" r="3.315" fill="#9AF5FC" fill-opacity="0.6"/>
<circle cx="319.815" cy="871.815" r="3.815" fill="#03A3F5" fill-opacity="0.85"/>
<circle cx="248.315" cy="668.315" r="6.315" fill="#F54721" fill-opacity="0.45"/>
<circle cx="72.815" cy="411.815" r="6.815" fill="#F62584" fill-opacity="0.9"/>
<circle cx="58.815" cy="924.815" r="4.815" fill="#755FFE" fill-opacity="0.45"/>
<circle cx="56.815" cy="391.815" r="2.815" fill="#C9FCBE" fill-opacity="0.85"/>
<circle cx="307.815" cy="548.815" r="3.815" fill="#DCBCFA" fill-opacity="0.45"/>
<circle cx="106.315" cy="204.315" r="6.315" fill="#4BC8EF"/>
<circle cx="424.315" cy="237.315" r="5.315" fill="#FC9E1C" fill-opacity="0.75"/>
<circle cx="376.815" cy="196.815" r="3.815" fill="#FC9E1C"/>
<circle cx="245.815" cy="369.815" r="3.815" fill="#9DED1A" fill-opacity="0.35"/>
<circle cx="275.815" cy="447.815" r="5.815" fill="#03A3F5" fill-opacity="0.75"/>
<circle cx="129.315" cy="825.315" r="3.315" fill="#9AF5FC" fill-opacity="0.65"/>
<circle cx="288.815" cy="54.815" r="4.815" fill="#F62584" fill-opacity="0.65"/>
<circle cx="9.315" cy="756.315" r="2.315" fill="#DCBCFA" fill-opacity="0.45"/>
<circle cx="251.315" cy="76.315" r="5.315" fill="#FFED36" fill-opacity="0.45"/>
<circle cx="52.815" cy="453.815" r="4.815" fill="#9AF5FC" fill-opacity="0.75"/>
<circle cx="218.815" cy="492.815" r="6.815" fill="#FFED36"/>
<path d="M415.391 269.509L410.274 263.41L416.373 258.292L421.491 264.391L415.391 269.509Z" fill="#03A3F5" fill-opacity="0.6"/>
<path d="M231.191 8.19056L228.698 -1.11131L235.508 -7.92074L244.809 -5.42832L247.302 3.87355L240.492 10.683L231.191 8.19056Z" fill="#DCBCFA" fill-opacity="0.65"/>
<path d="M264.025 526.63L267.24 518.256L276.197 518.726L278.518 527.39L270.996 532.275L264.025 526.63Z" fill="#FC9E1C" fill-opacity="0.85"/>
<path d="M136.698 915.206L134.369 910.635L137.163 906.333L142.286 906.601L144.615 911.172L141.821 915.474L136.698 915.206Z" fill="#F62584" fill-opacity="0.75"/>
<path d="M340.854 51.8874L347.48 52.1188L350.593 57.9727L347.079 63.5953L340.453 63.3639L337.341 57.51L340.854 51.8874Z" fill="#FC9E1C" fill-opacity="0.35"/>
<path d="M415.922 259.244L421.036 256.048L425.656 259.924L423.397 265.516L417.381 265.095L415.922 259.244Z" fill="#F54721" fill-opacity="0.9"/>
<path d="M257.692 502.105L257.408 493.98L264.303 489.672L271.481 493.489L271.765 501.614L264.87 505.922L257.692 502.105Z" fill="#F54721" fill-opacity="0.75"/>
<path d="M184.89 678.048L182.295 663.328L196.341 668.44L184.89 678.048Z" fill="#FC9E1C"/>
<path d="M341.996 289.278L347.343 282.182L350.815 290.361L341.996 289.278Z" fill="#DCBCFA" fill-opacity="0.35"/>
<path d="M219.042 304.042L215.845 315.97L207.113 307.238L219.042 304.042Z" fill="#FFED36" fill-opacity="0.45"/>
<path d="M-5.61984 544.948L-6.1415 530.01L7.05644 537.027L-5.61984 544.948Z" fill="#BA3E03" fill-opacity="0.75"/>
<path d="M412.806 696.108L418.647 682.348L427.643 694.286L412.806 696.108Z" fill="#DCBCFA" fill-opacity="0.65"/>
<path d="M220.329 357.571L220.06 362.694L215.49 365.023L211.187 362.229L211.456 357.106L216.027 354.777L220.329 357.571Z" fill="#480CA7" fill-opacity="0.35"/>
<path d="M59.9628 344.452L65.4741 336.866L73.0596 342.377L67.5484 349.963L59.9628 344.452Z" fill="#4BC8EF" fill-opacity="0.85"/>
<path d="M244.594 446.693L250.386 451.908L247.216 459.028L239.464 458.214L237.844 450.59L244.594 446.693Z" fill="#F62584" fill-opacity="0.6"/>
<path d="M304.829 874.922L301.094 883.719L291.573 882.886L289.424 873.574L297.616 868.651L304.829 874.922Z" fill="#4BC8EF"/>
<path d="M352.395 452.357L357.291 448.668L362.934 451.063L363.681 457.148L358.785 460.837L353.142 458.442L352.395 452.357Z" fill="#F54721" fill-opacity="0.65"/>
<path d="M139.944 706.628L149.829 708.91L150.713 719.017L141.375 722.981L134.719 715.324L139.944 706.628Z" fill="#DCBCFA" fill-opacity="0.75"/>
<path d="M275.826 670.088L270.934 672.474L267.153 668.559L269.709 663.753L275.069 664.698L275.826 670.088Z" fill="#480CA7" fill-opacity="0.6"/>
<path d="M105.877 61.7343L98.3407 60.5408L95.6064 53.4175L100.408 47.4879L107.944 48.6815L110.678 55.8047L105.877 61.7343Z" fill="#BA3E03" fill-opacity="0.65"/>
<path d="M389.939 801.008L383.91 795.185L387.584 787.652L395.885 788.818L397.34 797.073L389.939 801.008Z" fill="#FFED36" fill-opacity="0.9"/>
<path d="M24.185 154.392L24.185 146.762L30.7928 142.947L37.4005 146.762L37.4005 154.392L30.7928 158.207L24.185 154.392Z" fill="#4BC8EF" fill-opacity="0.65"/>
<path d="M308.918 42.3106L316.156 37.6104L323.845 41.5283L324.297 50.1465L317.059 54.8467L309.37 50.9288L308.918 42.3106Z" fill="#FC9E1C"/>
<path d="M361.921 830.738L363.726 826.272L360.036 823.176L364.841 823.512L366.645 819.046L367.811 823.719L372.616 824.056L368.531 826.608L369.696 831.282L366.006 828.186L361.921 830.738Z" fill="#DCBCFA" fill-opacity="0.6"/>
<path d="M180.667 748.148L179.452 751.873L183.136 753.208L179.302 754.018L179.987 757.876L177.369 754.961L174.371 757.483L175.586 753.758L171.903 752.423L175.736 751.613L175.051 747.756L177.669 750.671L180.667 748.148Z" fill="#F62584" fill-opacity="0.65"/>
<path d="M146.942 126.889L152.453 128.169L153.91 122.702L155.558 128.115L161.021 126.644L157.157 130.777L161.163 134.772L155.652 133.493L154.194 138.96L152.547 133.547L147.083 135.018L150.947 130.885L146.942 126.889Z" fill="#4BC8EF" fill-opacity="0.65"/>
<path d="M389.898 263.07L396.495 262.376L397.874 255.888L400.572 261.948L407.169 261.254L402.24 265.693L404.938 271.753L399.193 268.436L394.264 272.875L395.643 266.386L389.898 263.07Z" fill="#FC9E1C"/>
<path d="M372.106 219.17L375.849 216.213L376.041 211.446L378.999 215.19L383.766 215.381L380.022 218.339L379.83 223.106L376.873 219.362L372.106 219.17Z" fill="#F62584" fill-opacity="0.85"/>
<path d="M1.37772 799.295L-0.0881648 795.476L-4.17299 795.69L-0.994129 793.116L-2.46001 789.297L0.970517 791.525L4.14938 788.951L3.0907 792.902L6.52123 795.13L2.4364 795.344L1.37772 799.295Z" fill="#9DED1A" fill-opacity="0.35"/>
<path d="M407.942 34.2023L405.67 37.485L406.683 41.3469L403.4 39.0744L399.538 40.0871L401.81 36.8044L400.798 32.9424L404.08 35.215L407.942 34.2023Z" fill="#FF21FB" fill-opacity="0.45"/>
<path d="M294.434 856.052L291.784 850.369L285.561 851.133L290.147 846.857L287.497 841.174L292.981 844.214L297.567 839.938L296.37 846.093L301.854 849.133L295.631 849.897L294.434 856.052Z" fill="#C9FCBE" fill-opacity="0.35"/>
<path d="M45.883 744.478L48.3122 746.595L50.5067 744.236L49.8879 747.398L53.0284 748.119L49.9805 749.164L50.9264 752.244L48.4973 750.127L46.3027 752.487L46.9215 749.325L43.7811 748.604L46.829 747.558L45.883 744.478Z" fill="#03A3F5" fill-opacity="0.85"/>
<path d="M235.545 83.9459L232.625 88.792L237.373 91.8675L231.717 91.7617L231.428 97.4122L228.691 92.4602L223.653 95.0352L226.573 90.1891L221.824 87.1136L227.481 87.2194L227.77 81.5689L230.507 86.5209L235.545 83.9459Z" fill="#DCBCFA" fill-opacity="0.9"/>
<path d="M198.887 480.938L204.899 478.135L204.091 471.551L208.615 476.402L214.627 473.599L211.411 479.4L215.935 484.252L209.423 482.986L206.207 488.788L205.399 482.204L198.887 480.938Z" fill="#F54721"/>
<path d="M302.34 698.337L304.067 692.688L299.229 689.3L305.135 689.197L306.862 683.548L308.785 689.133L314.691 689.03L309.973 692.585L311.896 698.17L307.058 694.782L302.34 698.337Z" fill="#755FFE"/>
<path d="M299.314 682.913L299.571 678.929L296.714 676.14L300.698 676.398L303.487 673.54L303.229 677.525L306.087 680.314L302.102 680.056L299.314 682.913Z" fill="#F54721"/>
<path d="M98.8969 431.334L92.9754 431.78L89.4593 436.566L89.0135 430.644L84.228 427.128L90.1495 426.682L93.6656 421.897L94.1115 427.818L98.8969 431.334Z" fill="#FFED36" fill-opacity="0.75"/>
<path d="M347.728 378.03L342.112 378.712L342.612 384.348L339.212 379.825L334.582 383.076L336.799 377.871L331.668 375.486L337.285 374.804L336.785 369.168L340.184 373.691L344.815 370.44L342.597 375.645L347.728 378.03Z" fill="#480CA7" fill-opacity="0.45"/>
<path d="M159.958 176.158L157.072 174.056L154.877 176.872L155.255 173.322L151.719 172.83L154.982 171.382L153.641 168.073L156.526 170.175L158.721 167.359L158.343 170.909L161.879 171.402L158.616 172.85L159.958 176.158Z" fill="#755FFE" fill-opacity="0.75"/>
<path d="M232.225 166.082L230.491 170.358L234.708 172.229L230.138 172.865L230.626 177.454L227.79 173.814L224.061 176.531L225.795 172.255L221.577 170.384L226.147 169.747L225.659 165.159L228.495 168.799L232.225 166.082Z" fill="#755FFE" fill-opacity="0.35"/>
<path d="M272.379 883.103L267.026 884.568L264.654 889.584L263.189 884.232L258.173 881.86L263.525 880.395L265.897 875.379L267.362 880.731L272.379 883.103Z" fill="#FC9E1C" fill-opacity="0.9"/>
<path d="M187.671 510.571L183.99 509.988L182.298 513.309L181.715 509.627L178.033 509.044L181.354 507.352L180.771 503.671L183.407 506.307L186.728 504.614L185.036 507.935L187.671 510.571Z" fill="#F62584" fill-opacity="0.9"/>
<path d="M149.681 774.427L151.344 768.656L145.63 766.807L151.459 765.361L150.203 759.488L154.37 763.814L158.828 759.789L157.165 765.561L162.879 767.409L157.05 768.855L158.306 774.728L154.14 770.403L149.681 774.427Z" fill="#FF21FB" fill-opacity="0.75"/>
<path d="M419.185 651.759L418.979 645.856L413.301 644.228L418.851 642.208L418.645 636.304L422.282 640.959L427.832 638.939L424.529 643.836L428.166 648.49L422.488 646.862L419.185 651.759Z" fill="#4BC8EF" fill-opacity="0.65"/>
<path d="M209.437 670.466L208.105 674.641L210.407 678.369L206.232 677.037L202.504 679.339L203.836 675.165L201.534 671.437L205.708 672.768L209.437 670.466Z" fill="#DCBCFA" fill-opacity="0.9"/>
<path d="M261.618 380.452L263.616 386.864L269.785 389.521L263.372 391.52L260.715 397.688L258.717 391.276L252.548 388.618L258.961 386.62L261.618 380.452Z" fill="#DCBCFA" fill-opacity="0.6"/>
</svg>
