<svg width="101" height="101" viewBox="0 0 101 101" fill="none" xmlns="http://www.w3.org/2000/svg">
<g filter="url(#filter0_d_23_3256)">
<path d="M50.5 89C73.9721 89 93 69.9721 93 46.5C93 23.0279 73.9721 4 50.5 4C27.0279 4 8 23.0279 8 46.5C8 69.9721 27.0279 89 50.5 89Z" fill="#A2D2FF"/>
<mask id="mask0_23_3256" style="mask-type:luminance" maskUnits="userSpaceOnUse" x="8" y="4" width="85" height="85">
<path d="M50.5 89C73.9721 89 93 69.9721 93 46.5C93 23.0279 73.9721 4 50.5 4C27.0279 4 8 23.0279 8 46.5C8 69.9721 27.0279 89 50.5 89Z" fill="white"/>
</mask>
<g mask="url(#mask0_23_3256)">
<path d="M50.7504 93.1756C71.6992 93.1756 88.6815 75.2792 88.6815 53.2029C88.6815 31.1266 71.6992 13.2302 50.7504 13.2302C29.8017 13.2302 12.8193 31.1266 12.8193 53.2029C12.8193 75.2792 29.8017 93.1756 50.7504 93.1756Z" fill="#BDE0FE"/>
</g>
<mask id="mask1_23_3256" style="mask-type:luminance" maskUnits="userSpaceOnUse" x="8" y="4" width="85" height="85">
<path d="M50.5 89C73.9721 89 93 69.9721 93 46.5C93 23.0279 73.9721 4 50.5 4C27.0279 4 8 23.0279 8 46.5C8 69.9721 27.0279 89 50.5 89Z" fill="white"/>
</mask>
<g mask="url(#mask1_23_3256)">
<path d="M46.6421 78.4012C46.6421 78.4012 48.9445 73.6319 49.9312 72.4807C50.918 71.3295 52.1771 69.0271 54.0966 68.6982C56.0162 68.3694 56.0162 70.6718 55.194 71.3295C54.3717 71.9872 46.6421 78.4012 46.6421 78.4012Z" fill="#F7DBC6"/>
<path d="M52.2253 74.9475C52.2253 74.9475 59.0792 72.15 60.9498 72.3162C62.8203 72.4825 66.3769 71.5945 64.0745 69.324C61.772 67.0535 55.1774 68.8626 52.2253 71.0005C49.2733 73.1386 43.9085 82.6772 52.2253 74.9475Z" fill="#F7DBC6"/>
<path d="M27.0715 94.1892L37.7763 83.006C37.7763 83.006 35.9524 81.0325 36.7746 78.7302C37.597 76.4278 39.5323 74.9477 38.5647 72.9741C37.5971 71.0005 37.5951 69.356 38.8295 69.356C40.0639 69.356 42.5307 69.5205 43.1885 71.6584C43.8464 73.7963 42.8199 76.5921 43.9088 77.4145C44.9976 78.2367 47.4646 76.9211 48.4513 76.0988C49.438 75.2764 52.3983 71.165 56.3453 70.1783C60.2923 69.1916 61.4435 69.8495 62.2657 70.6717C63.0879 71.4939 62.9236 73.632 62.2657 74.1253C61.6079 74.6187 59.1411 73.1386 57.1675 74.2898C55.1939 75.441 49.3059 83.9929 41.7245 86.1308C41.7245 86.1308 36.6555 92.0513 35.8927 94.1894C35.13 96.3273 35.13 96.3273 35.13 96.3273C35.13 96.3273 24.1774 97.2127 27.0715 94.1892Z" fill="#FE9F54"/>
<path d="M59.4859 32.0136C59.4859 32.0136 67.8668 30.7005 72.4736 24.6171L69.5114 30.7845L76.0901 29.552C76.0901 29.552 68.7441 37.3383 57.204 36.0718L59.4859 32.0136Z" fill="#FF521D"/>
<path d="M40.3602 33.3484C40.3602 33.3484 31.902 32.6984 26.831 26.996L30.2691 32.9113L23.6138 32.1999C23.6138 32.1999 31.5493 39.3845 42.9541 37.2144L40.3602 33.3484Z" fill="#FF521D"/>
<path d="M66.9749 24.6153C66.9749 24.6153 65.894 28.8909 63.9197 31.3571C61.9454 33.8233 58.6788 37.0447 50.4324 36.9445L51.0921 30.7786C51.0921 30.7786 53.5018 32.9984 55.586 32.5058C57.6701 32.013 60.9606 27.5737 61.126 24.6135L66.9749 24.6153Z" fill="#DB2A12"/>
<path d="M60.7988 19.6794C60.7988 19.6794 66.0817 22.4769 66.975 24.6151C66.975 24.6151 56.504 27.5721 54.3736 29.545C52.2432 31.5178 50.4325 36.9443 50.4325 36.9443L49.3533 36.2104C49.3533 36.2104 48.9536 32.9969 51.0927 29.0506C53.232 25.1043 60.7988 19.6794 60.7988 19.6794Z" fill="#FF521D"/>
<path d="M32.3129 26.5619C32.3129 26.5619 33.7267 30.7393 35.8888 33.0426C38.0508 35.3459 41.5607 38.3005 49.7737 37.552L48.6311 31.4571C48.6311 31.4571 46.4034 33.8595 44.287 33.5323C42.1706 33.205 38.5411 29.0382 38.1435 26.1001L32.3129 26.5619Z" fill="#DB2A12"/>
<path d="M38.0818 21.1559C38.0818 21.1559 33.0351 24.3601 32.3129 26.5619C32.3129 26.5619 42.984 28.6863 45.2628 30.4855C47.5417 32.2847 49.7736 37.552 49.7736 37.552L50.7917 36.7355C50.7917 36.7355 50.9375 33.5006 48.4945 29.7346C46.0518 25.9688 38.0818 21.1559 38.0818 21.1559Z" fill="#FF521D"/>
<path d="M30.3607 42.0561C30.3607 42.0561 37.4657 69.6698 37.7762 70.014C38.087 70.358 64.0745 69.982 64.0745 69.982C64.0745 69.982 72.1331 40.576 72.2974 40.0826L30.3607 42.0561Z" fill="#FFAFCC"/>
<path d="M45.3984 42.9878C45.3984 42.9878 48.4334 68.8238 48.9817 70.1589C48.9817 70.1589 52.3627 71.0108 54.3042 70.1589C54.3042 70.1589 54.5833 44.4131 54.3042 42.9878C54.0251 41.5625 45.3984 42.9878 45.3984 42.9878Z" fill="#DB2A12"/>
<path d="M28.0584 37.6156C28.0584 37.6156 70.9819 33.6686 75.5868 33.6686C75.5868 33.6686 73.3942 41.4 72.2976 42.7138C72.2976 42.7138 32.4987 45.3451 30.3608 45.3451C30.3608 45.3451 27.7295 38.7668 28.0584 37.6156Z" fill="#FFC8DD"/>
<path d="M43.6494 35.7516C43.6494 35.7516 44.6435 44.6325 44.7295 45.3451C44.7295 45.3451 54.3539 44.9614 55.2311 44.8518V34.5458C55.2311 34.5458 45.195 35.0944 43.6494 35.7516Z" fill="#F24016"/>
</g>
<mask id="mask2_23_3256" style="mask-type:luminance" maskUnits="userSpaceOnUse" x="8" y="4" width="85" height="85">
<path d="M50.5 89C73.9721 89 93 69.9721 93 46.5C93 23.0279 73.9721 4 50.5 4C27.0279 4 8 23.0279 8 46.5C8 69.9721 27.0279 89 50.5 89Z" fill="white"/>
</mask>
<g mask="url(#mask2_23_3256)">
<path d="M86.8963 47.9536C86.8433 48.3948 86.4427 48.7095 86.0015 48.6566L81.6476 48.134C81.2064 48.0809 80.8916 47.6804 80.9445 47.2391C80.9975 46.7979 81.3981 46.4832 81.8393 46.5361L86.1933 47.0587C86.6345 47.1116 86.9492 47.5123 86.8963 47.9536Z" fill="white"/>
<path d="M82.1654 23.2075C82.4084 23.5795 82.3038 24.0781 81.9318 24.3213L78.2605 26.7196C77.8885 26.9626 77.3898 26.858 77.1467 26.486C76.9037 26.114 77.0083 25.6154 77.3803 25.3722L81.0516 22.9739C81.4237 22.7308 81.9224 22.8355 82.1654 23.2075Z" fill="white"/>
<path d="M61.6353 9.90312C62.0607 10.0318 62.3011 10.4812 62.1723 10.9065L60.9015 15.1034C60.7728 15.5287 60.3235 15.7692 59.8981 15.6404C59.4728 15.5116 59.2323 15.0623 59.3612 14.637L60.632 10.4401C60.7607 10.0148 61.21 9.77441 61.6353 9.90312Z" fill="white"/>
<path d="M36.3694 11.053C36.7781 10.8782 37.251 11.0678 37.4257 11.4764L39.1499 15.5083C39.3247 15.917 39.135 16.3899 38.7265 16.5646C38.3178 16.7394 37.8449 16.5497 37.6703 16.1412L35.946 12.1092C35.7712 11.7007 35.9609 11.2278 36.3694 11.053Z" fill="white"/>
<path d="M17.0578 27.2919C17.2585 26.8953 17.7426 26.7367 18.1392 26.9373L22.0518 28.9177C22.4482 29.1184 22.607 29.6025 22.4064 29.9991C22.2057 30.3957 21.7216 30.5543 21.325 30.3537L17.4124 28.3734C17.0158 28.1726 16.8572 27.6885 17.0578 27.2919Z" fill="white"/>
<path d="M14.5052 52.7416C14.404 52.309 14.6729 51.8761 15.1056 51.7749L19.3757 50.777C19.8086 50.6759 20.2412 50.9448 20.3424 51.3775C20.4436 51.8101 20.1747 52.243 19.742 52.3441L15.4719 53.3421C15.0392 53.4432 14.6064 53.1745 14.5052 52.7416Z" fill="white"/>
<path d="M28.1981 74.9873C27.8424 74.7207 27.7701 74.2165 28.0367 73.8608L30.6663 70.3515C30.9329 69.9959 31.4372 69.9236 31.7928 70.1901C32.1485 70.4567 32.2208 70.9609 31.9542 71.3166L29.3245 74.8259C29.058 75.1816 28.5537 75.2539 28.1981 74.9873Z" fill="white"/>
<path d="M76.7615 70.4895C76.4373 70.7935 75.9281 70.7772 75.6241 70.4529L72.6248 67.2539C72.3208 66.9297 72.3372 66.4204 72.6615 66.1165C72.9856 65.8125 73.4949 65.8289 73.7988 66.1532L76.7981 69.3522C77.1021 69.6763 77.0856 70.1856 76.7615 70.4895Z" fill="white"/>
</g>
</g>
<defs>
<filter id="filter0_d_23_3256" x="0" y="0" width="101" height="101" filterUnits="userSpaceOnUse" color-interpolation-filters="sRGB">
<feFlood flood-opacity="0" result="BackgroundImageFix"/>
<feColorMatrix in="SourceAlpha" type="matrix" values="0 0 0 0 0 0 0 0 0 0 0 0 0 0 0 0 0 0 127 0" result="hardAlpha"/>
<feOffset dy="4"/>
<feGaussianBlur stdDeviation="4"/>
<feComposite in2="hardAlpha" operator="out"/>
<feColorMatrix type="matrix" values="0 0 0 0 0 0 0 0 0 0 0 0 0 0 0 0 0 0 0.25 0"/>
<feBlend mode="normal" in2="BackgroundImageFix" result="effect1_dropShadow_23_3256"/>
<feBlend mode="normal" in="SourceGraphic" in2="effect1_dropShadow_23_3256" result="shape"/>
</filter>
</defs>
</svg>
